<svg id="Layer_1" data-name="Layer 1" xmlns="http://www.w3.org/2000/svg" viewBox="0 0 332.63 330.45"><title>db</title><circle cx="165.93" cy="164.89" r="163.61" style="stroke:#fff;stroke-miterlimit:10"/><path d="M217.59,182.22v-5c3.19,0,6.25,0,9.32,0,6.55-.05,10.7-4.18,10.74-10.75,0-6.24.05-12.48,0-18.72-.06-6.62-4.17-10.67-10.82-10.67q-62,0-124,0c-7,0-10.88,3.92-10.9,11q0,9.25,0,18.5c0,6.68,4,10.64,10.72,10.69,3.07,0,6.14,0,9.34,0v5c-2.78,0-5.55.09-8.32,0-4-.16-7.37.86-9.88,4.19a2.38,2.38,0,0,1-1.87.52,30.44,30.44,0,0,1-26-24.9c-3-18.2,9.28-34.23,27.57-36,3.37-.32,4-1.43,2.88-4.88-5.05-15.8-2.57-30.26,8.43-42.77,20.84-23.71,59.78-16.55,71.21,13,.19.48.35,1,.54,1.44,1.24,3.13,2.53,3.47,5.29,1.46,9.73-7.09,20.31-8.38,31.21-3.53,10.7,4.76,16.53,13.5,18,25.09a30.88,30.88,0,0,1-.13,6.37c-.28,3.22.57,4.25,3.79,3.92a30.38,30.38,0,0,1,24.88,8.29,30.69,30.69,0,0,1,7.18,34,31.07,31.07,0,0,1-28.89,18.81,2.9,2.9,0,0,1-2-.82,10.59,10.59,0,0,0-8.8-4.2ZM132.66,74.37C118.12,75,106.29,86.8,104.8,102.1c-.29,2.94.41,4.35,2.22,4.49s2.61-1,2.82-4.1a24.76,24.76,0,0,1,23.71-23.14c2.39-.1,3.65-1,3.56-2.66s-1.38-2.43-3.8-2.35Z" style="fill:#fff"/><path d="M164.69,262.62H103.23c-4.67,0-6.25-1.55-6.26-6.19q0-8.92,0-17.84c0-4.54,1.6-6.16,6.08-6.16H226.41c4.48,0,6.11,1.65,6.12,6.09q0,9,0,18.06c0,4.39-1.69,6-6.16,6ZM142,250q15.86,0,31.71,0c1.71,0,3.34-.27,3.49-2.45.12-1.68-1.15-2.56-3.57-2.59h-62.1c-.59,0-1.18,0-1.76,0-1.64.06-2.74.92-2.73,2.54a2.43,2.43,0,0,0,2.59,2.45c.66,0,1.32,0,2,0Zm73-10a7.44,7.44,0,0,0-7.56,7.51,7.6,7.6,0,0,0,7.5,7.42,7.49,7.49,0,0,0,7.53-7.57A7.39,7.39,0,0,0,215,240.09Zm-27.54,7.34a7.39,7.39,0,0,0,7.45,7.59,7.54,7.54,0,0,0,7.49-7.41,7.36,7.36,0,0,0-7.29-7.52A7.23,7.23,0,0,0,187.46,247.43Z" style="fill:#fff"/><path d="M164.91,142.1h61.64c4.38,0,6,1.56,6,5.93q0,9.25,0,18.49c0,3.94-1.7,5.69-5.61,5.69q-62.19,0-124.39,0c-3.82,0-5.51-1.68-5.55-5.54q-.09-9.58,0-19.15c0-3.8,1.79-5.42,5.62-5.42Zm-22.79,12.57H111.3c-3,0-4.37.83-4.27,2.52s1.39,2.39,4.25,2.39h61.88c.73,0,1.68.21,2.15-.16.81-.64,1.79-1.65,1.82-2.53,0-.7-1.17-1.59-2-2.12-.47-.31-1.29-.09-1.95-.09Zm45.34,2.53a7.49,7.49,0,0,0,7.39,7.48,7.69,7.69,0,0,0,7.55-7.62,7.5,7.5,0,0,0-7.46-7.41A7.33,7.33,0,0,0,187.46,157.2ZM215,149.65a7.58,7.58,0,0,0-7.6,7.48,7.52,7.52,0,0,0,15,.12A7.46,7.46,0,0,0,215,149.65Z" style="fill:#fff"/><path d="M164.58,217.32H102.72c-4.11,0-5.72-1.56-5.74-5.71q-.05-9.36,0-18.71c0-4,1.69-5.61,5.67-5.61H226.82c4.1,0,5.7,1.62,5.71,5.76q0,9.36,0,18.71c0,4-1.63,5.56-5.64,5.56Zm-22.44-12.5H173c3.12,0,4.33-.7,4.3-2.49s-1.25-2.49-4.35-2.49H111.49a5.16,5.16,0,0,0-2.58.25c-.8.53-1.77,1.6-1.73,2.4s1.15,1.67,2,2.19c.54.34,1.43.12,2.16.12Zm72.85,5a7.43,7.43,0,0,0,7.47-7.38,7.58,7.58,0,0,0-7.51-7.63,7.67,7.67,0,0,0-7.51,7.45A7.53,7.53,0,0,0,215,209.8Zm-20.19,0a7.48,7.48,0,0,0,7.59-7.43,7.65,7.65,0,0,0-7.52-7.58,7.43,7.43,0,0,0-7.41,7.39A7.34,7.34,0,0,0,194.81,209.8Z" style="fill:#fff"/><path d="M212.33,272.59H117.17v-4.89h95.16Z" style="fill:#fff"/><path d="M212.4,177.35v4.79H117.15v-4.79Z" style="fill:#fff"/><path d="M212.41,222.62v4.63H117.18v-4.63Z" style="fill:#fff"/><path d="M68.16,232.49a11.25,11.25,0,0,1,11.23,11.42,11.33,11.33,0,1,1-11.23-11.42Z" style="fill:#fff"/><path d="M267.71,84.25a7.52,7.52,0,0,1-15,.1,7.52,7.52,0,1,1,15-.1Z" style="fill:#fff"/><path d="M227.56,65.43a3.8,3.8,0,0,1-3.75,3.78,3.75,3.75,0,0,1-.07-7.51A3.83,3.83,0,0,1,227.56,65.43Z" style="fill:#fff"/><path d="M74.32,206.19a3.67,3.67,0,0,1-3.84,3.63A3.74,3.74,0,0,1,66.81,206a3.84,3.84,0,0,1,3.87-3.68A3.77,3.77,0,0,1,74.32,206.19Z" style="fill:#fff"/><path d="M58.11,114.49a3.75,3.75,0,0,1,3.71,3.8A3.92,3.92,0,0,1,58,122a3.79,3.79,0,0,1-3.65-3.86A3.62,3.62,0,0,1,58.11,114.49Z" style="fill:#fff"/><path d="M267.7,211.18a3.75,3.75,0,1,1-7.5-.11,3.75,3.75,0,0,1,7.5.11Z" style="fill:#fff"/><path d="M257.62,268.79a3.76,3.76,0,0,1-3.63,3.88,3.89,3.89,0,0,1-3.88-3.68,3.77,3.77,0,0,1,3.68-3.83A3.65,3.65,0,0,1,257.62,268.79Z" style="fill:#fff"/><path d="M83.21,61.71a3.83,3.83,0,0,1,3.71,3.83,3.78,3.78,0,0,1-3.84,3.68,3.7,3.7,0,0,1-3.67-3.81A3.74,3.74,0,0,1,83.21,61.71Z" style="fill:#fff"/><path d="M214.34,250.31c-.6-1-1.55-1.9-1.7-2.94-.2-1.4.94-2.3,2.32-2.29s2.65,1,2.4,2.46c-.17,1-1.26,1.88-1.94,2.81Z" style="fill:#fff"/><path d="M197.7,248c-.94.66-1.89,1.85-2.8,1.83a3.38,3.38,0,0,1-2.38-2.13,2,2,0,0,1,2.22-2.54c1,.09,2,1.14,2.93,1.76Z" style="fill:#fff"/><path d="M197.69,157.68c-1,.63-1.86,1.66-2.89,1.8-1.5.21-2.43-1-2.37-2.47a2.11,2.11,0,0,1,2.38-2.26c1,.18,1.93,1.2,2.88,1.85Z" style="fill:#fff"/><path d="M215.64,159.68c-2.25-.26-3.12-1.11-3.08-2.66a2.23,2.23,0,0,1,2.37-2.33,2.14,2.14,0,0,1,2.44,2.41C217.22,158.12,216.12,159,215.64,159.68Z" style="fill:#fff"/><path d="M215.58,199.53c.63,1,1.67,1.91,1.77,2.94a2.17,2.17,0,0,1-2.55,2.31c-1.38-.09-2.47-1-2.17-2.44.22-1,1.22-1.9,1.88-2.85Z" style="fill:#fff"/><path d="M197.66,203c-1,.61-2,1.76-2.93,1.67a3.42,3.42,0,0,1-2.21-2.35,2,2,0,0,1,2.4-2.33c1,.2,1.87,1.26,2.79,1.94Z" style="fill:#fff"/></svg>