<svg id="Layer_1" data-name="Layer 1" xmlns="http://www.w3.org/2000/svg" viewBox="0 0 325.46 325.46"><title>empty</title><circle cx="162.73" cy="162.73" r="162.73" style="fill:#544ae3"/><path d="M59.28,135.25a35.89,35.89,0,0,1,4.67-17.49C75.19,97.66,86.33,77.5,97.69,57.47c8.47-14.93,24.74-21.65,40.92-17.06A40,40,0,0,1,147,44.08q50.3,27.94,100.53,56c3,1.65,3.3,2.81,1.69,5.79q-1.5,2.78-3.05,5.53c-1.47,2.62-2.88,3-5.53,1.55q-17.89-10-35.77-20Q172.3,74.77,139.76,56.6c-9.34-5.2-19.15-3.94-26.37,3.37A22.26,22.26,0,0,0,110,64.72c-11.13,19.83-22,39.78-33.37,59.49-6.2,10.8-2.36,24,8.59,30.09,28.18,15.69,56.25,31.57,84.37,47.38q8.07,4.54,16.14,9.08c3,1.72,3.33,2.73,1.7,5.72q-1.46,2.68-2.94,5.35c-1.49,2.69-2.75,3-5.48,1.51l-43.36-24.27L78.39,167C66.1,160.13,59.22,148.69,59.28,135.25Z" transform="translate(-4.78 -2.51)" style="fill:#fff"/><path d="M106.17,95.93l86.11,103.78-.33.42c-.55-.24-1.13-.45-1.65-.74q-49.39-27.45-98.76-54.92c-6.18-3.44-7.54-8.39-4.12-14.62Q96,114.2,104.62,98.56C105,97.8,105.5,97.07,106.17,95.93Z" transform="translate(-4.78 -2.51)" style="fill:#fff"/><path d="M205,284.9c-16.07,0-26.75-14-23.2-29.3,2.4-10.35,7.65-19.38,13.26-28.22,1.87-2.94,3.87-5.8,5.94-8.6,1.76-2.38,4.32-2.51,6-.2,7.81,10.46,14.69,21.45,18.52,34.06,2.49,8.18,2.26,16.09-3.21,23.18A22.57,22.57,0,0,1,205,284.9Zm-1.25-9.59c.19-.09,1.38-.35,1.43-.75.08-.67-.52-1.45-.93-2.13a4.8,4.8,0,0,0-1-.86c-4-3.62-6.72-7.94-7.37-13.4-.24-2-.35-4-.68-6a2.34,2.34,0,0,0-1.21-1.48c-.26-.12-1.23.56-1.35,1-.84,3.36-2,6.72-2.17,10.13C190.21,268.88,196.34,275.13,203.75,275.31Z" transform="translate(-4.78 -2.51)" style="fill:#fff"/></svg>