<svg id="Layer_1" data-name="Layer 1" xmlns="http://www.w3.org/2000/svg" viewBox="0 0 325.46 325.46"><title>full</title><circle cx="162.73" cy="162.73" r="162.73" style="fill:#4f75ed"/><path d="M111.89,99.19H215c0,.63.08,1.2.08,1.76q0,56.71,0,113.42c0,7-4.42,11.38-11.47,11.38h-80.2c-7.1,0-11.48-4.4-11.48-11.54q0-56.55,0-113.1Z" transform="translate(-4.78 -2.51)" style="fill:#fff"/><path d="M245.8,147.79c0,22-.05,44.08,0,66.13,0,13.37-5,24.44-15.09,33A40.34,40.34,0,0,1,204,256.51q-40.52.07-81,0a40.3,40.3,0,0,1-26.48-9.39c-10-8.36-15.29-19.2-15.31-32.28Q81,146.44,81.11,78c0-2.72,1.36-4.07,4.09-4.09,2.92,0,5.83,0,8.75,0a3.64,3.64,0,0,1,4,3.92c0,.49,0,1,0,1.46q0,67.42,0,134.85a24.87,24.87,0,0,0,6.94,17.94c4.42,4.62,9.91,7.48,16.36,7.51q42.22.17,84.44,0c11.74,0,22.55-10.54,23.3-22.24.11-1.67.16-3.35.16-5q0-66.45,0-132.9c0-.65,0-1.3,0-1.94A3.43,3.43,0,0,1,232.85,74c3.08,0,6.16,0,9.24,0,2.58,0,3.71,1.19,3.71,3.81Q245.8,112.78,245.8,147.79Z" transform="translate(-4.78 -2.51)" style="fill:#fff"/></svg>