<svg id="Layer_1" data-name="Layer 1" xmlns="http://www.w3.org/2000/svg" viewBox="0 0 792 612"><title>search</title><path d="M233.63,276a127.24,127.24,0,0,1,254.48-.07c.32,67.66-53.29,127.25-127.18,127.31C287.7,403.25,233.51,343.93,233.63,276Zm32.58-.1a94.94,94.94,0,0,0,94.19,94.67c51.85.46,94.38-41.6,94.93-94.09.54-51.87-42.2-95.24-94.32-95C307.52,181.72,267,224,266.2,275.85Z" style="fill:#5147e2"/><path d="M559,458.48c-.57,5.88-2.79,11.36-9.18,14.07s-12.51,2.4-17.62-2.47c-8.9-8.48-17.51-17.26-26.21-25.95q-20.72-20.67-41.41-41.36c-4.12-4.11-6.45-8.87-5.48-14.79a15.7,15.7,0,0,1,11-13c6.14-2.09,11.89-1,16.6,3.71q22.93,22.77,45.77,45.63c6.91,6.89,13.78,13.81,20.73,20.66A18.48,18.48,0,0,1,559,458.48Z" style="fill:#5147e2"/></svg>