<svg id="Layer_1" data-name="Layer 1" xmlns="http://www.w3.org/2000/svg" viewBox="0 0 325.4 325.46"><title>searcher</title><path d="M0,127.18a127.24,127.24,0,0,1,254.48-.07c.32,67.66-53.29,127.25-127.18,127.31C54.07,254.47-.11,195.16,0,127.18Zm32.58-.1a94.94,94.94,0,0,0,94.19,94.67c51.85.46,94.38-41.6,94.93-94.09.54-51.87-42.2-95.24-94.32-95C73.9,32.95,33.36,75.23,32.58,127.08Z" style="fill:#5147e2"/><path d="M325.4,309.71c-.57,5.88-2.79,11.36-9.18,14.07s-12.51,2.4-17.62-2.47c-8.9-8.48-17.51-17.26-26.21-25.95Q251.67,274.69,231,254c-4.12-4.11-6.45-8.87-5.48-14.79a15.7,15.7,0,0,1,11-13c6.14-2.09,11.89-1,16.6,3.71Q276,252.64,298.87,275.5c6.91,6.89,13.78,13.81,20.73,20.66A18.48,18.48,0,0,1,325.4,309.71Z" style="fill:#5147e2"/></svg>